<svg width="628" height="237" viewBox="0 0 628 237" fill="none" xmlns="http://www.w3.org/2000/svg">
<path d="M519.07 188.424C521.912 181.72 524.013 175.338 527.202 169.454C537.41 150.185 551.375 133.773 566.132 117.931C569.864 113.933 569.914 113.809 564.698 111.823C553.699 107.577 542.082 106.434 530.464 105.69C507.661 104.468 484.798 104.975 462.071 107.204C461.536 107.18 461.014 107.039 460.54 106.79C460.066 106.541 459.652 106.191 459.327 105.764C456.723 102.123 454.385 98.2976 452.332 94.3173C451.229 92.0742 449.65 90.1008 447.707 88.5352C445.765 86.9696 443.505 85.8498 441.086 85.2542C414.168 76.216 386.707 76.514 359.097 80.2882C350.248 81.5048 341.474 83.4168 332.452 85.0307C332.229 84.559 331.883 83.8885 331.562 83.1685C331.241 82.4484 330.87 81.629 330.499 80.6854C344.602 76.3185 359.127 73.4718 373.829 72.1935C390.184 70.7395 406.654 71.3149 422.869 73.9068C429.931 74.7121 436.776 76.8609 443.038 80.2385C444.404 81.1083 445.994 81.5571 447.611 81.5297C453.914 81.1076 460.192 80.3875 466.471 79.7171C467.879 79.5681 469.956 79.5681 469.313 77.234C468.423 74.2792 470.425 70.3312 466.471 68.3696C466.175 68.3303 465.876 68.3303 465.581 68.3696L446.425 66.557C432.657 65.241 418.914 63.8754 405.146 62.5842C391.378 61.293 377.957 60.1012 364.436 58.81C350.174 57.494 335.937 56.0538 321.675 54.862C321.009 54.9057 320.342 54.8137 319.713 54.5916C319.084 54.3694 318.506 54.0217 318.014 53.5694C317.522 53.1171 317.127 52.5694 316.851 51.9594C316.575 51.3495 316.425 50.6898 316.41 50.0201L348.691 52.081C348.938 51.8079 349.21 51.5347 349.482 51.2864C348.073 48.3813 346.664 45.501 345.082 42.1985C349.108 42.6969 353.166 42.8713 357.219 42.72C362.755 42.0744 365.4 44.9299 367.328 49.3497C367.688 49.9395 367.971 50.5738 368.169 51.2368C368.614 54.1667 370.64 54.5392 373.112 54.8123C376.919 55.2593 380.725 55.8055 384.556 56.3021L410.93 59.9025C412.833 60.1508 413.575 59.4307 413.649 57.4195C413.871 51.2616 413.946 51.2616 408.186 48.7289C406.868 48.1677 405.514 47.6949 404.133 47.3136C392.033 43.8154 379.61 41.5608 367.056 40.5846C365.918 40.5067 364.834 40.0626 363.967 39.3182C354.549 29.6344 342.759 25.2395 329.757 23.2779C328.297 23.0356 326.991 22.2235 326.124 21.0183C322.639 15.3819 319.351 9.62124 316.237 3.81096C315.773 2.91509 315.089 2.153 314.25 1.59683C313.411 1.04066 312.444 0.708811 311.442 0.632687C302.865 -0.931619 295.005 1.47692 287.317 4.77934C283.56 6.39331 283.585 6.4678 284.846 10.2917C286.526 15.7047 286.526 15.7047 291.89 14.2645C296.315 13.0726 299.478 14.1155 300.838 17.6911C301.577 20.1238 302.107 22.616 302.42 25.1402C301.184 25.3885 300.517 25.6119 299.948 25.6616C286.238 27.3158 273.107 32.1806 261.611 39.8645C260.919 40.3114 260.598 41.3543 260.128 42.1241C260.995 42.5558 261.933 42.825 262.896 42.9186C265.121 42.6703 267.321 42.0744 269.57 41.6771C287.836 38.3995 306.177 35.544 324.814 35.9661C329.051 36.1489 333.275 36.555 337.469 37.1828C338.31 37.1828 339.027 38.2754 340.262 39.2189C327.187 39.7652 315.051 40.1128 302.914 40.808C293.571 41.3543 284.055 40.808 274.983 43.5642C260.375 48.1578 245.767 52.8259 231.307 57.8664C216.847 62.907 202.437 68.32 188.002 73.6337C183.726 75.2228 179.4 76.7871 175.001 78.3762C173.345 72.3673 171.688 66.7557 170.28 60.9951C169.76 58.8596 168.549 57.7423 166.597 58.1892C162.395 59.1328 158.267 60.2998 154.238 61.5661C153.207 61.9166 152.299 62.5568 151.619 63.4107C150.94 64.2645 150.519 65.2962 150.407 66.3832C149.146 72.4666 147.712 78.5501 146.13 84.559C145.914 85.2378 145.555 85.8619 145.077 86.3889C144.6 86.9159 144.015 87.3334 143.362 87.6131C135.707 89.7923 128.885 94.2403 123.786 100.376C120.885 104.245 116.778 107.025 112.119 108.272C106.607 109.638 102.875 112.195 103.715 118.701C103.842 119.257 103.846 119.834 103.728 120.392C103.61 120.951 103.372 121.476 103.031 121.933C102.689 122.389 102.253 122.765 101.752 123.034C101.251 123.304 100.698 123.46 100.131 123.493C96.9671 124.014 95.9537 126.274 95.7065 129.179C94.9897 137.472 94.0752 145.741 93.5314 154.009C93.1112 160.838 93.1359 167.691 92.9629 174.544C92.9629 176.456 93.1359 177.896 95.7065 177.548C103.517 176.481 111.353 175.537 119.188 174.519C137.084 172.21 154.979 169.851 172.9 167.567C192.352 165.084 211.855 162.6 231.307 160.266C253.042 157.502 274.769 154.704 296.488 151.874C297.913 151.72 299.237 151.06 300.22 150.012C306.238 142.444 314.012 136.476 322.861 132.63C328.942 129.75 335.517 129.899 341.943 129.179C360.086 127.143 378.229 125.007 396.322 123.418C416.492 121.655 436.686 120.29 456.905 119.048C481.953 117.186 507.105 117.236 532.145 119.197C537.286 119.669 542.378 120.761 548.261 121.68C530.701 136.375 515.173 153.36 502.089 172.185C489.016 190.698 479.078 211.252 472.675 233.019C456.139 221.225 437.625 218.121 418.148 219.238C406.827 219.934 395.531 221.25 384.235 222.143C370.146 223.286 356.082 224.378 341.993 225.297C317.646 226.836 293.398 224.974 269.199 222.814C255.654 221.572 242.158 219.71 228.663 218.046C213.98 216.259 199.298 214.421 184.616 212.534C169.217 210.622 153.669 208.561 138.171 206.227C127.147 204.613 116.148 202.801 105.223 200.665C102.616 200.201 100.227 198.908 98.4072 196.977C96.5873 195.046 95.4326 192.578 95.1133 189.939C94.7426 187.853 93.8527 187.182 91.7764 187.182C62.1153 187.182 32.6519 187.182 3.0897 187.182C2.05156 187.182 1.03814 188.076 0 188.573C0.988704 189.07 1.97741 189.988 2.99083 190.013C14.3609 190.013 25.731 190.013 37.0764 190.013H91.9C94.1246 198.654 99.9333 202.999 108.115 204.266C127.889 207.32 147.465 210.473 167.215 213.105C192.426 216.482 217.713 219.412 242.974 222.491C254.122 223.832 265.22 225.272 276.466 226.29C287.713 227.308 298.168 227.904 309.019 228.401C332.826 229.134 356.655 228.188 380.33 225.57C393.9 224.304 407.519 222.963 421.04 222.143C438.154 220.788 455.235 225.143 469.634 234.534C474.701 237.861 474.578 237.811 476.432 231.877C486.319 198.753 504.511 170.447 528.017 145.492C535.284 137.795 543.367 130.892 551.054 123.617C552.908 121.879 552.834 120.91 550.535 120.041C548.429 119.217 546.253 118.586 544.034 118.154C527.96 115.303 511.618 114.279 495.316 115.1C472.699 115.746 450.107 116.838 427.516 118.154C412.438 119.023 397.41 120.488 382.357 121.929C368.119 123.294 353.907 124.908 339.669 126.497C335.038 126.67 330.438 127.345 325.951 128.509C315.315 131.966 305.883 138.401 298.762 147.057C297.814 148.106 296.543 148.805 295.153 149.043C285.068 150.434 274.983 151.526 264.898 152.917C253.059 154.431 241.219 155.996 229.379 157.485C217.54 158.975 206.293 160.391 194.775 161.856L154.88 166.971L114.962 171.937L96.3986 174.395C96.3986 168.535 96.1267 162.973 96.3986 157.461C96.9424 148.348 97.9806 139.285 98.6479 130.147C98.8457 127.317 100.23 126.224 103.048 125.926C102.776 129.179 102.529 132.233 102.281 135.262C102.108 137.497 102.949 138.093 105.124 137.398C109.227 136.057 113.404 134.915 117.829 133.624C117.582 136.827 117.483 139.806 117.038 142.736C116.921 143.236 116.693 143.703 116.373 144.103C116.052 144.503 115.646 144.825 115.184 145.045C111.575 146.312 107.769 147.231 104.209 148.497C103.751 148.673 103.338 148.953 103.004 149.315C102.67 149.676 102.423 150.11 102.281 150.583C101.738 154.704 101.466 158.851 101.12 162.998C101.12 164.686 101.688 165.481 103.418 164.959C107.843 163.892 112.292 163.047 116.642 161.806C117.179 161.535 117.648 161.146 118.016 160.67C118.384 160.193 118.641 159.639 118.768 159.05C119.203 155.757 119.434 152.44 119.46 149.118C119.412 148.784 119.432 148.443 119.519 148.117C119.606 147.791 119.758 147.486 119.966 147.221C120.174 146.957 120.434 146.737 120.73 146.576C121.025 146.416 121.35 146.317 121.685 146.287C135.329 142.836 148.874 139.136 162.592 135.833C187.009 129.715 211.772 125.088 236.745 121.978C253.009 120.091 269.397 119.321 285.735 118.005C286.407 117.884 287.1 118.001 287.695 118.336C288.29 118.671 288.751 119.204 288.998 119.843C291.247 124.039 293.62 128.136 295.944 132.258C298.267 136.38 298.267 136.131 301.654 133.201C310.873 125.231 321.106 119.321 333.49 118.055C335.962 117.807 335.962 116.64 334.998 114.877C332.946 110.929 330.919 106.956 328.892 103.008L319.178 84.559L327.582 81.7035C328.497 83.6403 329.313 85.3287 330.054 87.0172C330.13 87.3219 330.27 87.6066 330.465 87.8519C330.66 88.0972 330.906 88.2974 331.185 88.4388C331.464 88.5802 331.771 88.6595 332.083 88.6712C332.395 88.683 332.707 88.627 332.995 88.507C350.308 84.071 368.056 81.5727 385.916 81.0579C405.987 80.4868 425.736 82.3739 444.546 90.0465C445.763 90.5621 446.803 91.4255 447.537 92.5295C450.824 97.719 454.038 102.958 457.103 108.272C457.439 109.027 458.014 109.649 458.737 110.044C459.461 110.439 460.293 110.584 461.107 110.457C470.994 109.762 480.881 109.116 490.99 108.595C510.796 107.276 530.685 108.108 550.313 111.078C555.083 111.847 559.705 113.412 564.847 114.728L562.375 117.211C548.901 131.177 536.998 146.59 526.88 163.172C522.328 170.607 518.951 178.707 516.87 187.182C516.054 190.808 516.474 191.354 520.182 191.354H628C628 190.361 628 189.367 628 188.374L519.07 188.424ZM386.855 46.2707C394.27 47.835 401.686 50.0449 409.101 51.9072C411.943 52.6273 411.202 54.713 411.153 57.047L380.404 52.8507C378.858 52.5253 377.286 52.3342 375.707 52.2796C374.347 52.4473 372.974 52.0853 371.871 51.268C370.768 50.4506 370.018 49.24 369.775 47.8847C369.097 46.3339 368.269 44.8536 367.304 43.4649C374.15 44.3836 380.651 44.9795 386.855 46.2707ZM115.802 159.05L104.135 161.781C104.407 158.479 104.531 155.524 104.951 152.619C104.951 151.948 106.063 151.104 106.829 150.856C109.894 149.813 113.009 148.944 116.716 147.851C116.37 151.774 116.173 155.3 115.802 159.05ZM338.631 34.1535C329.113 33.3438 319.558 33.0537 310.008 33.2845C297.946 34.0294 285.958 36.14 273.945 37.6794C272.932 37.8036 271.918 38.0519 270.905 38.2505C279.58 33.2379 289.157 29.9975 299.083 28.7157C305.411 27.946 305.781 27.6232 304.694 21.2666C303.137 11.9056 298.935 9.44743 288.454 11.9553L287.021 8.20592C294.93 4.5807 302.84 1.94869 311.565 3.81096C312.48 4.0096 313.32 5.30078 313.889 6.29399C317.102 11.7566 320.34 17.1945 323.306 22.7813C323.828 23.8734 324.645 24.7966 325.663 25.4461C326.681 26.0957 327.859 26.4456 329.065 26.4562C337.853 27.232 346.329 30.1097 353.783 34.8488C355.933 36.2641 357.886 37.9277 360.457 39.8148C359.147 39.8148 358.43 40.0383 357.738 40.0135C354.574 39.8645 351.41 39.4672 348.271 39.5914C345.132 39.7155 342.561 39.4176 341.325 35.8668C341.035 35.3943 340.642 34.9943 340.175 34.6974C339.708 34.4005 339.18 34.2145 338.631 34.1535ZM118.175 129.253C118.069 129.593 117.887 129.904 117.642 130.162C117.398 130.421 117.098 130.619 116.766 130.743C113.034 131.96 109.351 133.028 105.297 134.244C105.594 131.265 105.742 128.509 106.162 125.777C106.261 125.329 106.453 124.908 106.726 124.54C106.998 124.171 107.345 123.866 107.744 123.642C111.229 122.077 114.813 120.712 118.916 119.048C118.644 122.748 118.644 126.001 118.175 129.253ZM118.916 115.771C114.912 117.385 110.933 119.048 106.558 120.737C106.606 118.76 106.754 116.788 107.002 114.827C107.002 114.132 107.843 113.461 108.411 112.89C108.828 112.632 109.289 112.456 109.771 112.369C116.776 110.421 123.015 106.355 127.642 100.723C132.391 95.2694 138.775 91.5135 145.834 90.0216C146.468 89.7538 147.034 89.3474 147.491 88.8319C147.949 88.3165 148.286 87.705 148.479 87.042C150.234 80.462 151.642 73.7826 153.422 67.1778C153.747 65.9963 154.519 64.9893 155.573 64.372C158.44 63.1305 161.48 62.2614 164.446 61.2682C166.448 60.6226 167.437 61.2682 167.956 63.4781C169.266 68.7669 170.922 73.9316 172.257 79.2205C172.825 81.5545 173.74 82.0511 176.014 81.2069C195.491 74.0061 215.043 66.5322 234.817 59.7287C249.079 54.7627 263.49 49.9456 278.122 46.0721C285.557 44.5497 293.127 43.8009 300.714 43.8373C313.073 43.2166 325.432 43.0428 337.791 42.4468C339.03 42.1889 340.321 42.4185 341.397 43.0883C342.473 43.7582 343.253 44.8173 343.575 46.0472C343.985 47.0678 344.455 48.0628 344.984 49.0269L331.389 48.1826C326.075 47.8598 320.76 47.4626 315.421 47.1894C311.911 46.9908 311.565 47.6115 313.123 50.8395C313.567 51.8079 314.037 52.7762 314.704 54.1667C309.761 53.695 304.817 53.2728 300.146 52.7762C292.978 52.0313 286.329 52.9749 281.039 58.512C279.853 59.6327 278.925 60.9997 278.318 62.5178C277.712 64.0359 277.443 65.6686 277.529 67.3019C277.727 70.9768 277.529 74.751 277.529 78.3266C277.529 80.611 278.444 81.2566 280.446 79.9902C286.842 76.0591 294.41 74.5122 301.827 75.6201L121.116 129.502C121.363 125.479 121.66 121.73 121.858 117.981C122.08 115.15 121.487 114.728 118.916 115.771ZM317.967 81.8276C315.743 82.5726 315.347 83.7396 316.459 85.8501C321.403 95.1118 326.149 104.448 330.969 113.759C331.191 114.181 331.339 114.628 331.661 115.373C318.808 117.136 308.55 123.344 298.86 131.538C296.216 126.87 293.521 122.425 291.124 117.807C290.753 116.911 290.101 116.161 289.266 115.672C288.431 115.183 287.461 114.983 286.502 115.1C268.135 115.513 249.81 117.047 231.629 119.694C194.223 125.226 157.216 133.205 120.844 143.581C120.59 143.612 120.333 143.612 120.078 143.581C120.276 140.328 120.35 137.05 120.82 133.847C120.82 133.127 122.402 132.332 123.291 132.034C136.318 128.111 149.368 124.312 162.395 120.439L270.485 88.1594L307.561 77.0851C308.338 76.9429 309.094 76.7008 309.81 76.365C310.475 75.8843 311.081 75.3258 311.615 74.7014C311.022 74.1799 310.478 73.3109 309.786 73.2115C300.879 71.1558 291.562 71.8658 283.066 75.2476L280.594 76.4395C280.594 72.6404 280.322 68.9904 280.594 65.539C280.88 63.9548 281.526 62.4583 282.482 61.1662C283.438 59.8741 284.678 58.8213 286.106 58.0899C289.499 55.9949 293.499 55.1194 297.452 55.6069C303.26 56.1035 309.044 56.7242 314.754 57.3698C315.118 57.4007 315.472 57.5125 315.788 57.6972C316.104 57.8818 316.376 58.1347 316.583 58.4375C319.821 65.1914 322.935 71.9949 326.173 78.9473C323.306 79.9405 320.661 80.9338 317.967 81.8276ZM329.214 78.0038C326.124 71.3989 323.034 64.8437 319.648 57.643L465.68 71.4238C465.976 73.3854 466.199 74.9248 466.471 76.7623C461.898 77.234 457.374 77.5072 452.95 78.2272C448.909 78.848 444.777 78.0965 441.209 76.0919C432.953 71.9204 423.734 70.8278 414.613 69.8595C401.348 68.3866 387.974 68.1788 374.669 69.2387C360.142 70.5257 345.772 73.2198 331.76 77.2837L329.214 78.0038Z" fill="url(#paint0_radial_204_14)"/>
<defs>
<radialGradient id="paint0_radial_204_14" cx="0" cy="0" r="1" gradientUnits="userSpaceOnUse" gradientTransform="translate(320.5 147.647) rotate(-16.3457) scale(347.026 932.722)">
<stop stop-color="#DA99FF"/>
<stop offset="0.53125" stop-color="#B27CF7" stop-opacity="0.46875"/>
<stop offset="1" stop-color="white" stop-opacity="0"/>
</radialGradient>
</defs>
</svg>
