<svg width="628" height="235" viewBox="0 0 628 235" fill="none" xmlns="http://www.w3.org/2000/svg">
<path d="M519.07 186.999C521.912 180.341 524.013 174.003 527.202 168.158C537.41 149.021 551.375 132.719 566.132 116.986C569.864 113.015 569.914 112.892 564.698 110.919C553.699 106.702 542.082 105.567 530.464 104.827C507.661 103.615 484.798 104.117 462.071 106.332C461.536 106.308 461.014 106.168 460.54 105.92C460.066 105.673 459.652 105.326 459.327 104.901C456.723 101.285 454.385 97.4859 452.332 93.5326C451.229 91.3048 449.65 89.3448 447.707 87.7898C445.765 86.2349 443.505 85.1227 441.086 84.5312C414.168 75.5545 386.707 75.8504 359.097 79.5989C350.248 80.8073 341.474 82.7063 332.452 84.3092C332.229 83.8407 331.883 83.1748 331.562 82.4596C331.241 81.7445 330.87 80.9306 330.499 79.9935C344.602 75.6563 359.127 72.829 373.829 71.5593C390.184 70.1152 406.654 70.6867 422.869 73.261C429.931 74.0608 436.776 76.195 443.038 79.5496C444.404 80.4135 445.994 80.8593 447.611 80.832C453.914 80.4128 460.192 79.6976 466.471 79.0317C467.879 78.8838 469.956 78.8838 469.313 76.5656C468.423 73.6309 470.425 69.7097 466.471 67.7615C466.175 67.7224 465.876 67.7224 465.581 67.7615L446.425 65.9612C432.657 64.6542 418.914 63.2978 405.146 62.0154C391.378 60.733 377.957 59.5493 364.436 58.2669C350.174 56.9598 335.937 55.5295 321.675 54.3457C321.009 54.3891 320.342 54.2978 319.713 54.0772C319.084 53.8565 318.506 53.5112 318.014 53.0619C317.522 52.6127 317.127 52.0687 316.851 51.4629C316.575 50.8571 316.425 50.2019 316.41 49.5367L348.691 51.5836C348.938 51.3124 349.21 51.0411 349.482 50.7945C348.073 47.9091 346.664 45.0484 345.082 41.7684C349.108 42.2634 353.166 42.4366 357.219 42.2863C362.755 41.6451 365.4 44.4812 367.328 48.8709C367.688 49.4567 367.971 50.0867 368.169 50.7452C368.614 53.6552 370.64 54.0251 373.112 54.2964C376.919 54.7403 380.725 55.2828 384.556 55.7761L410.93 59.352C412.833 59.5986 413.575 58.8834 413.649 56.8858C413.871 50.7698 413.946 50.7698 408.186 48.2544C406.868 47.6969 405.514 47.2273 404.133 46.8487C392.033 43.3742 379.61 41.135 367.056 40.1654C365.918 40.088 364.834 39.6471 363.967 38.9077C354.549 29.2898 342.759 24.9247 329.757 22.9765C328.297 22.7359 326.991 21.9293 326.124 20.7323C322.639 15.1342 319.351 9.41273 316.237 3.64197C315.773 2.7522 315.089 1.9953 314.25 1.44291C313.411 0.890521 312.444 0.560926 311.442 0.48532C302.865 -1.06834 295.005 1.32381 287.317 4.60377C283.56 6.20675 283.585 6.28074 284.846 10.0786C286.526 15.4548 286.526 15.4548 291.89 14.0244C296.315 12.8407 299.478 13.8764 300.838 17.4277C301.577 19.8438 302.107 22.3191 302.42 24.8261C301.184 25.0727 300.517 25.2946 299.948 25.344C286.238 26.9869 273.107 31.8186 261.611 39.4503C260.919 39.8942 260.598 40.9299 260.128 41.6944C260.995 42.1232 261.933 42.3906 262.896 42.4836C265.121 42.237 267.321 41.6451 269.57 41.2505C287.836 37.9952 306.177 35.1592 324.814 35.5784C329.051 35.7599 333.275 36.1633 337.469 36.7868C338.31 36.7868 339.027 37.8719 340.262 38.8091C327.187 39.3516 315.051 39.6969 302.914 40.3874C293.571 40.9299 284.055 40.3874 274.983 43.1248C260.375 47.6871 245.767 52.3235 231.307 57.3297C216.847 62.336 202.437 67.7122 188.002 72.9897C183.726 74.568 179.4 76.1217 175.001 77.7C173.345 71.732 171.688 66.1585 170.28 60.4371C169.76 58.3162 168.549 57.2064 166.597 57.6503C162.395 58.5875 158.267 59.7465 154.238 61.0043C153.207 61.3524 152.299 61.9882 151.619 62.8362C150.94 63.6843 150.519 64.7089 150.407 65.7886C149.146 71.8306 147.712 77.8726 146.13 83.8407C145.914 84.5149 145.555 85.1348 145.077 85.6582C144.6 86.1816 144.015 86.5962 143.362 86.874C135.707 89.0384 128.885 93.4561 123.786 99.55C120.885 103.392 116.778 106.154 112.119 107.392C106.607 108.749 102.875 111.289 103.715 117.75C103.842 118.303 103.846 118.876 103.728 119.43C103.61 119.985 103.372 120.507 103.031 120.96C102.689 121.413 102.253 121.787 101.752 122.054C101.251 122.322 100.698 122.477 100.131 122.51C96.9671 123.028 95.9537 125.272 95.7065 128.157C94.9897 136.394 94.0752 144.606 93.5314 152.818C93.1112 159.6 93.1359 166.407 92.9629 173.213C92.9629 175.112 93.1359 176.543 95.7065 176.197C103.517 175.137 111.353 174.2 119.188 173.189C137.084 170.895 154.979 168.552 172.9 166.284C192.352 163.817 211.855 161.351 231.307 159.033C253.042 156.288 274.769 153.509 296.488 150.698C297.913 150.545 299.237 149.889 300.22 148.848C306.238 141.332 314.012 135.405 322.861 131.585C328.942 128.724 335.517 128.872 341.943 128.157C360.086 126.135 378.229 124.014 396.322 122.436C416.492 120.685 436.686 119.328 456.905 118.095C481.953 116.246 507.105 116.295 532.145 118.243C537.286 118.712 542.378 119.797 548.261 120.709C530.701 135.304 515.173 152.174 502.089 170.871C489.016 189.257 479.078 209.672 472.675 231.291C456.139 219.577 437.625 216.494 418.148 217.604C406.827 218.294 395.531 219.601 384.235 220.489C370.146 221.624 356.082 222.709 341.993 223.621C317.646 225.15 293.398 223.301 269.199 221.155C255.654 219.922 242.158 218.072 228.663 216.42C213.98 214.645 199.298 212.82 184.616 210.945C169.217 209.046 153.669 206.999 138.171 204.681C127.147 203.078 116.148 201.278 105.223 199.157C102.616 198.696 100.227 197.412 98.4072 195.494C96.5873 193.576 95.4326 191.125 95.1133 188.503C94.7426 186.432 93.8527 185.766 91.7764 185.766C62.1153 185.766 32.6519 185.766 3.0897 185.766C2.05156 185.766 1.03814 186.654 0 187.147C0.988704 187.64 1.97741 188.553 2.99083 188.577C14.3609 188.577 25.731 188.577 37.0764 188.577H91.9C94.1246 197.16 99.9333 201.475 108.115 202.733C127.889 205.766 147.465 208.898 167.215 211.512C192.426 214.866 217.713 217.776 242.974 220.835C254.122 222.166 265.22 223.597 276.466 224.608C287.713 225.619 298.168 226.211 309.019 226.704C332.826 227.432 356.655 226.493 380.33 223.893C393.9 222.635 407.519 221.303 421.04 220.489C438.154 219.143 455.235 223.468 469.634 232.795C474.701 236.1 474.578 236.051 476.432 230.156C486.319 197.258 504.511 169.144 528.017 144.36C535.284 136.715 543.367 129.859 551.054 122.633C552.908 120.907 552.834 119.945 550.535 119.082C548.429 118.263 546.253 117.636 544.034 117.207C527.96 114.376 511.618 113.358 495.316 114.174C472.699 114.815 450.107 115.9 427.516 117.207C412.438 118.071 397.41 119.526 382.357 120.956C368.119 122.312 353.907 123.915 339.669 125.494C335.038 125.666 330.438 126.335 325.951 127.491C315.315 130.925 305.883 137.316 298.762 145.913C297.814 146.955 296.543 147.65 295.153 147.886C285.068 149.267 274.983 150.352 264.898 151.733C253.059 153.238 241.219 154.791 229.379 156.271C217.54 157.751 206.293 159.156 194.775 160.611L154.88 165.692L114.962 170.624L96.3986 173.065C96.3986 167.245 96.1267 161.721 96.3986 156.246C96.9424 147.196 97.9806 138.194 98.6479 129.119C98.8457 126.308 100.23 125.222 103.048 124.926C102.776 128.157 102.529 131.19 102.281 134.199C102.108 136.419 102.949 137.011 105.124 136.32C109.227 134.988 113.404 133.854 117.829 132.572C117.582 135.753 117.483 138.712 117.038 141.622C116.921 142.119 116.693 142.583 116.373 142.98C116.052 143.376 115.645 143.696 115.184 143.916C111.575 145.173 107.769 146.086 104.209 147.344C103.751 147.519 103.338 147.797 103.004 148.156C102.67 148.515 102.423 148.946 102.281 149.415C101.738 153.509 101.466 157.627 101.12 161.746C101.12 163.423 101.688 164.212 103.418 163.694C107.843 162.634 112.292 161.795 116.642 160.562C117.179 160.293 117.648 159.907 118.016 159.434C118.384 158.96 118.641 158.41 118.768 157.825C119.203 154.554 119.434 151.26 119.46 147.96C119.412 147.628 119.432 147.29 119.519 146.967C119.606 146.643 119.758 146.34 119.966 146.077C120.174 145.814 120.434 145.596 120.73 145.436C121.025 145.277 121.35 145.179 121.685 145.149C135.329 141.721 148.874 138.046 162.592 134.766C187.009 128.689 211.772 124.094 236.745 121.005C253.009 119.131 269.397 118.367 285.735 117.06C286.407 116.939 287.1 117.055 287.695 117.388C288.29 117.721 288.751 118.25 288.998 118.884C291.247 123.052 293.62 127.121 295.944 131.215C298.267 135.309 298.267 135.062 301.654 132.152C310.873 124.236 321.106 118.367 333.49 117.109C335.962 116.862 335.962 115.703 334.998 113.952C332.946 110.031 330.919 106.085 328.892 102.164L319.178 83.8407L327.582 81.0046C328.497 82.9282 329.313 84.6052 330.054 86.2822C330.13 86.5848 330.27 86.8676 330.465 87.1112C330.66 87.3549 330.906 87.5537 331.185 87.6941C331.464 87.8345 331.771 87.9133 332.083 87.925C332.395 87.9367 332.707 87.881 332.995 87.7618C350.308 83.356 368.056 80.8748 385.916 80.3634C405.987 79.7962 425.736 81.6705 444.546 89.2908C445.763 89.803 446.803 90.6605 447.537 91.757C450.824 96.9112 454.038 102.115 457.103 107.392C457.439 108.142 458.014 108.76 458.737 109.152C459.461 109.544 460.293 109.688 461.107 109.562C470.994 108.872 480.881 108.231 490.99 107.713C510.796 106.403 530.685 107.23 550.313 110.179C555.083 110.944 559.705 112.497 564.847 113.804L562.375 116.27C548.901 130.142 536.998 145.45 526.88 161.919C522.328 169.304 518.951 177.348 516.87 185.766C516.054 189.367 516.474 189.909 520.182 189.909H628C628 188.923 628 187.936 628 186.95L519.07 186.999ZM386.855 45.8129C394.27 47.3665 401.686 49.5614 409.101 51.411C411.943 52.1262 411.202 54.1977 411.153 56.5159L380.404 52.3481C378.858 52.0249 377.286 51.8351 375.707 51.7809C374.347 51.9475 372.974 51.5879 371.871 50.7761C370.768 49.9644 370.018 48.762 369.775 47.4159C369.097 45.8756 368.269 44.4054 367.304 43.0261C374.15 43.9386 380.651 44.5305 386.855 45.8129ZM115.802 157.825L104.135 160.537C104.407 157.258 104.531 154.323 104.951 151.437C104.951 150.772 106.063 149.933 106.829 149.686C109.894 148.651 113.009 147.788 116.716 146.702C116.37 150.599 116.173 154.101 115.802 157.825ZM338.631 33.7781C329.113 32.9739 319.558 32.6858 310.008 32.915C297.946 33.6548 285.958 35.751 273.945 37.2801C272.932 37.4034 271.918 37.65 270.905 37.8473C279.58 32.8687 289.157 29.6504 299.083 28.3773C305.411 27.6128 305.781 27.2922 304.694 20.9789C303.137 11.6816 298.935 9.2401 288.454 11.7309L287.021 8.00703C294.93 4.40647 302.84 1.79237 311.565 3.64197C312.48 3.83926 313.32 5.12165 313.889 6.10811C317.102 11.5336 320.34 16.9344 323.306 22.4832C323.828 23.5679 324.645 24.4848 325.663 25.13C326.681 25.7751 327.859 26.1226 329.065 26.1331C337.853 26.9036 346.329 29.7618 353.783 34.4687C355.933 35.8744 357.886 37.5267 360.457 39.4009C359.147 39.4009 358.43 39.6229 357.738 39.5982C354.574 39.4503 351.41 39.0557 348.271 39.179C345.132 39.3023 342.561 39.0064 341.325 35.4798C341.035 35.0104 340.642 34.6132 340.175 34.3183C339.708 34.0235 339.18 33.8387 338.631 33.7781ZM118.175 128.231C118.069 128.569 117.887 128.878 117.642 129.134C117.398 129.39 117.098 129.588 116.766 129.711C113.034 130.919 109.351 131.98 105.297 133.188C105.594 130.229 105.742 127.491 106.162 124.779C106.261 124.334 106.453 123.915 106.726 123.549C106.998 123.184 107.345 122.88 107.744 122.658C111.229 121.104 114.813 119.748 118.916 118.095C118.644 121.77 118.644 125 118.175 128.231ZM118.916 114.84C114.912 116.443 110.933 118.095 106.558 119.772C106.606 117.81 106.754 115.851 107.002 113.903C107.002 113.212 107.843 112.547 108.411 111.979C108.828 111.723 109.289 111.548 109.771 111.461C116.776 109.527 123.015 105.489 127.642 99.8952C132.391 94.4783 138.775 90.7479 145.834 89.2662C146.467 89.0002 147.034 88.5965 147.491 88.0846C147.949 87.5726 148.286 86.9653 148.479 86.3068C150.234 79.7716 151.642 73.1377 153.422 66.5777C153.747 65.4043 154.519 64.4041 155.573 63.791C158.44 62.5579 161.48 61.6948 164.446 60.7083C166.448 60.0671 167.437 60.7083 167.956 62.9032C169.266 68.1561 170.922 73.2856 172.257 78.5385C172.825 80.8567 173.74 81.3499 176.014 80.5114C195.491 73.3596 215.043 65.9365 234.817 59.1793C249.079 54.2471 263.49 49.4628 278.122 45.6156C285.557 44.1036 293.127 43.3599 300.714 43.3961C313.073 42.7795 325.432 42.6069 337.791 42.015C339.03 41.7588 340.321 41.9869 341.397 42.6522C342.473 43.3175 343.253 44.3693 343.575 45.5909C343.985 46.6046 344.455 47.5928 344.984 48.5503L331.389 47.7118C326.075 47.3912 320.76 46.9966 315.421 46.7254C311.911 46.5281 311.565 47.1446 313.123 50.3506C313.567 51.3124 314.037 52.2742 314.704 53.6552C309.761 53.1866 304.817 52.7674 300.146 52.2742C292.978 51.5343 286.329 52.4714 281.039 57.9709C279.853 59.084 278.925 60.4417 278.318 61.9495C277.712 63.4572 277.443 65.0788 277.529 66.701C277.727 70.3509 277.529 74.0994 277.529 77.6507C277.529 79.9195 278.444 80.5607 280.446 79.303C286.842 75.3986 294.41 73.8622 301.827 74.9626L121.116 128.478C121.363 124.483 121.66 120.759 121.858 117.035C122.08 114.223 121.487 113.804 118.916 114.84ZM317.967 81.1279C315.743 81.8678 315.347 83.0269 316.459 85.1231C321.403 94.3218 326.149 103.594 330.969 112.842C331.191 113.262 331.339 113.706 331.661 114.445C318.808 116.196 308.55 122.362 298.86 130.5C296.216 125.864 293.521 121.449 291.124 116.862C290.753 115.972 290.101 115.228 289.266 114.742C288.432 114.257 287.461 114.057 286.502 114.174C268.135 114.584 249.81 116.108 231.629 118.737C194.223 124.231 157.216 132.156 120.844 142.461C120.59 142.492 120.333 142.492 120.078 142.461C120.276 139.23 120.35 135.975 120.82 132.793C120.82 132.078 122.402 131.289 123.291 130.993C136.318 127.097 149.368 123.324 162.395 119.476L270.485 87.4166L307.561 76.4176C308.338 76.2764 309.094 76.036 309.81 75.7024C310.475 75.225 311.081 74.6703 311.615 74.0501C311.022 73.5322 310.478 72.6691 309.786 72.5704C300.879 70.5287 291.562 71.2339 283.066 74.5927L280.594 75.7764C280.594 72.0032 280.322 68.378 280.594 64.9501C280.88 63.3767 281.526 61.8904 282.482 60.6071C283.438 59.3237 284.678 58.2781 286.106 57.5517C289.499 55.4709 293.499 54.6014 297.452 55.0855C303.26 55.5788 309.044 56.1953 314.754 56.8365C315.118 56.8672 315.472 56.9782 315.788 57.1616C316.104 57.345 316.376 57.5961 316.583 57.8969C319.821 64.6048 322.935 71.362 326.173 78.2672C323.306 79.2537 320.661 80.2401 317.967 81.1279ZM329.214 77.3301C326.124 70.7702 323.034 64.2596 319.648 57.1078L465.68 70.7948C465.976 72.7431 466.199 74.2721 466.471 76.097C461.898 76.5656 457.374 76.8369 452.95 77.552C448.909 78.1686 444.777 77.4222 441.209 75.4312C432.953 71.2881 423.734 70.203 414.613 69.2412C401.348 67.7783 387.974 67.5719 374.669 68.6246C360.142 69.9028 345.772 72.5787 331.76 76.6149L329.214 77.3301Z" fill="url(#paint0_radial_93_792)"/>
<defs>
<radialGradient id="paint0_radial_93_792" cx="0" cy="0" r="1" gradientUnits="userSpaceOnUse" gradientTransform="translate(320.5 146.5) rotate(-16.2404) scale(346.84 926.875)">
<stop stop-color="#DA99FF"/>
<stop offset="0.53125" stop-color="#B27CF7" stop-opacity="0.46875"/>
<stop offset="1" stop-color="white" stop-opacity="0"/>
</radialGradient>
</defs>
</svg>
