<svg width="84" height="84" viewBox="0 0 84 84" fill="none" xmlns="http://www.w3.org/2000/svg">
<path d="M42 78.2812C45.7047 78.2812 48.7188 75.2672 48.7188 71.5625C48.7188 67.8578 45.7047 64.8438 42 64.8438C38.2953 64.8438 35.2812 67.8578 35.2812 71.5625C35.2812 75.2672 38.2953 78.2812 42 78.2812ZM42 67.5312C44.2226 67.5312 46.0312 69.3399 46.0312 71.5625C46.0312 73.7851 44.2226 75.5938 42 75.5938C39.7774 75.5938 37.9688 73.7851 37.9688 71.5625C37.9688 69.3399 39.7774 67.5312 42 67.5312ZM62.4761 42.7821C63.1923 42.516 63.9085 42.2472 64.6449 42.0215L70.2188 40.3042V29.9062H66.1875C52.109 29.9062 40.6562 41.359 40.6562 55.4375V56.7812H44.0156L44.4188 56.2437C46.769 53.1115 49.5344 50.3998 52.6116 48.1194L74.4811 69.989C75.497 71.0035 76.8461 71.5625 78.2812 71.5625C79.7164 71.5625 81.0655 71.0035 82.0814 69.9876C83.0973 68.9717 83.6562 67.6226 83.6562 66.1875C83.6562 64.7524 83.0973 63.4033 82.0814 62.3874L62.4761 42.7821ZM43.4607 53.1128C44.6297 41.6049 54.3759 32.5938 66.1875 32.5938H67.5312V38.3208L63.8548 39.4523C55.7963 41.9315 48.7833 46.6359 43.4607 53.1128ZM80.1813 68.0876C79.1654 69.1034 77.3971 69.1034 76.3812 68.0876L54.8651 46.5714C56.4373 45.5677 58.078 44.6727 59.7886 43.8933L80.1827 64.2874C80.6893 64.7954 80.9688 65.4699 80.9688 66.1875C80.9688 66.9051 80.6893 67.5796 80.1813 68.0876ZM79.625 0.34375H66.1875C63.9649 0.34375 62.1562 2.15244 62.1562 4.375V11.0938H56.7812V4.375C56.7812 2.15244 54.9726 0.34375 52.75 0.34375H39.3125C37.0899 0.34375 35.2812 2.15244 35.2812 4.375V11.0938H29.9062V4.375C29.9062 2.15244 28.0976 0.34375 25.875 0.34375H12.4375C10.2149 0.34375 8.40625 2.15244 8.40625 4.375V20.5C8.40625 22.7226 10.2149 24.5312 12.4375 24.5312H17.8125V29.9062H4.375C2.15244 29.9062 0.34375 31.7149 0.34375 33.9375V42C0.34375 43.036 0.748219 43.9726 1.39187 44.6875C0.748219 45.4024 0.34375 46.339 0.34375 47.375V55.4375C0.34375 56.4735 0.748219 57.4101 1.39187 58.125C0.748219 58.8399 0.34375 59.7765 0.34375 60.8125V68.875C0.34375 71.0976 2.15244 72.9062 4.375 72.9062H29.9062V75.192L31.6813 75.8356L30.8805 77.5462L36.0136 82.6793L37.7242 81.8785L38.3705 83.6562H45.6295L46.2731 81.8812L47.9837 82.682L53.1168 77.5489L52.316 75.8383L54.0938 75.192V67.933L52.3187 67.2894L53.1195 65.5788L47.9864 60.4457L46.2758 61.2465L45.6295 59.4688H38.3705L37.9499 60.6271C37.9056 59.6649 37.5253 58.7955 36.9206 58.125C37.5656 57.4101 37.9688 56.4735 37.9688 55.4375V47.375C37.9688 46.339 37.5643 45.4024 36.9206 44.6875C37.5656 43.9726 37.9688 43.036 37.9688 42V33.9375C37.9688 31.7149 36.1601 29.9062 33.9375 29.9062H20.5V24.5312H25.875C28.0976 24.5312 29.9062 22.7226 29.9062 20.5V13.7812H35.2812V20.5C35.2812 22.7226 37.0899 24.5312 39.3125 24.5312H52.75C54.9726 24.5312 56.7812 22.7226 56.7812 20.5V13.7812H62.1562V20.5C62.1562 22.7226 63.9649 24.5312 66.1875 24.5312H79.625C81.8476 24.5312 83.6562 22.7226 83.6562 20.5V4.375C83.6562 2.15244 81.8476 0.34375 79.625 0.34375ZM35.2812 47.375V55.4375C35.2812 56.1792 34.6792 56.7812 33.9375 56.7812H4.375C3.63325 56.7812 3.03125 56.1792 3.03125 55.4375V47.375C3.03125 46.6333 3.63325 46.0312 4.375 46.0312H33.9375C34.6792 46.0312 35.2812 46.6333 35.2812 47.375ZM29.9062 67.933V70.2188H4.375C3.63325 70.2188 3.03125 69.6168 3.03125 68.875V60.8125C3.03125 60.0708 3.63325 59.4688 4.375 59.4688H33.9375C34.6792 59.4688 35.2812 60.0708 35.2812 60.8125V61.1767L30.8818 65.5761L31.6827 67.2867L29.9062 67.933ZM39.6457 63.8306L40.2545 62.1562H43.7455L44.1487 63.2622L44.4201 63.8561L45.8055 64.4299L47.4153 63.676L49.8851 66.1458L49.1313 67.7557L49.7306 69.2069L51.4062 69.817V73.308L50.3003 73.7112L49.7064 73.9826L49.1326 75.368L49.8865 76.9778L47.4167 79.4476L45.8068 78.6938L44.3556 79.2931L43.7455 80.9688H40.2545L39.8513 79.8628L39.5799 79.2689L38.1945 78.6951L36.5847 79.449L34.1149 76.9792L34.8687 75.3693L34.2694 73.9181L32.5938 73.308V69.817L33.6997 69.4138L34.2936 69.1424L34.8674 67.757L34.1135 66.1472L36.5833 63.6774L38.1932 64.4312L39.6457 63.8306ZM35.2812 33.9375V42C35.2812 42.7417 34.6792 43.3438 33.9375 43.3438H4.375C3.63325 43.3438 3.03125 42.7417 3.03125 42V33.9375C3.03125 33.1958 3.63325 32.5938 4.375 32.5938H33.9375C34.6792 32.5938 35.2812 33.1958 35.2812 33.9375ZM27.2188 20.5C27.2188 21.2418 26.6168 21.8438 25.875 21.8438H12.4375C11.6958 21.8438 11.0938 21.2418 11.0938 20.5V4.375C11.0938 3.63325 11.6958 3.03125 12.4375 3.03125H25.875C26.6168 3.03125 27.2188 3.63325 27.2188 4.375V20.5ZM54.0938 20.5C54.0938 21.2418 53.4917 21.8438 52.75 21.8438H39.3125C38.5708 21.8438 37.9688 21.2418 37.9688 20.5V4.375C37.9688 3.63325 38.5708 3.03125 39.3125 3.03125H52.75C53.4917 3.03125 54.0938 3.63325 54.0938 4.375V20.5ZM80.9688 20.5C80.9688 21.2418 80.3668 21.8438 79.625 21.8438H66.1875C65.4457 21.8438 64.8438 21.2418 64.8438 20.5V4.375C64.8438 3.63325 65.4457 3.03125 66.1875 3.03125H79.625C80.3668 3.03125 80.9688 3.63325 80.9688 4.375V20.5ZM13.7812 5.71875H24.5312V8.40625H13.7812V5.71875ZM13.7812 11.0938H24.5312V13.7812H13.7812V11.0938ZM13.7812 16.4688H24.5312V19.1562H13.7812V16.4688ZM43.3438 8.40625H40.6562V5.71875H43.3438V8.40625ZM46.0312 5.71875H51.4062V8.40625H46.0312V5.71875ZM40.6562 11.0938H51.4062V13.7812H40.6562V11.0938ZM40.6562 16.4688H51.4062V19.1562H40.6562V16.4688ZM67.5312 16.4688H70.2188V19.1562H67.5312V16.4688ZM72.9062 16.4688H78.2812V19.1562H72.9062V16.4688ZM67.5312 11.0938H70.2188V13.7812H67.5312V11.0938ZM72.9062 11.0938H78.2812V13.7812H72.9062V11.0938ZM67.5312 5.71875H70.2188V8.40625H67.5312V5.71875ZM72.9062 5.71875H78.2812V8.40625H72.9062V5.71875ZM13.7812 37.9688H11.0938V35.2812H13.7812V37.9688ZM19.1562 37.9688H16.4688V35.2812H19.1562V37.9688ZM8.40625 37.9688H5.71875V35.2812H8.40625V37.9688ZM16.4688 62.1562H19.1562V64.8438H16.4688V62.1562ZM5.71875 62.1562H8.40625V64.8438H5.71875V62.1562ZM11.0938 62.1562H13.7812V64.8438H11.0938V62.1562ZM21.8438 51.4062H19.1562V48.7188H21.8438V51.4062ZM32.5938 51.4062H29.9062V48.7188H32.5938V51.4062ZM27.2188 51.4062H24.5312V48.7188H27.2188V51.4062Z" fill="url(#paint0_linear_72_2038)"/>
<defs>
<linearGradient id="paint0_linear_72_2038" x1="13.0862" y1="11.9741" x2="76.4741" y2="67.9483" gradientUnits="userSpaceOnUse">
<stop stop-color="#9D0FE1"/>
<stop offset="1" stop-color="#190655"/>
</linearGradient>
</defs>
</svg>
