<svg width="1280" height="740" viewBox="0 0 1280 740" fill="none" xmlns="http://www.w3.org/2000/svg">
<mask id="mask0_15_3961" style="mask-type:alpha" maskUnits="userSpaceOnUse" x="0" y="96" width="1280" height="590">
<rect y="96" width="1280" height="590" fill="#D9D9D9"/>
</mask>
<g mask="url(#mask0_15_3961)">
<path opacity="0.2" d="M868.807 208.381L-628 793.39" stroke="#967BFF"/>
<path opacity="0.2" d="M956.855 242.793L-539.952 827.803" stroke="#967BFF"/>
<path opacity="0.2" d="M1044.9 277.206L-451.904 862.215" stroke="#967BFF"/>
<path opacity="0.2" d="M1132.95 311.618L-363.857 896.627" stroke="#967BFF"/>
<path opacity="0.2" d="M1221 346.03L-275.81 931.04" stroke="#967BFF"/>
<path opacity="0.2" d="M1309.04 380.442L-187.763 965.452" stroke="#967BFF"/>
<path opacity="0.2" d="M1397.09 414.855L-99.7155 999.864" stroke="#967BFF"/>
<path opacity="0.2" d="M1485.14 449.267L-11.6668 1034.28" stroke="#967BFF"/>
<path opacity="0.2" d="M1573.19 483.679L76.3808 1068.69" stroke="#967BFF"/>
<path opacity="0.2" d="M1661.23 518.092L164.427 1103.1" stroke="#967BFF"/>
<path opacity="0.2" d="M1749.28 552.504L252.475 1137.51" stroke="#967BFF"/>
<path opacity="0.2" d="M1837.33 586.917L340.522 1171.93" stroke="#967BFF"/>
<path opacity="0.2" d="M1925.38 621.329L428.57 1206.34" stroke="#967BFF"/>
<path opacity="0.2" d="M2013.43 655.741L516.618 1240.75" stroke="#967BFF"/>
<path opacity="0.2" d="M692.712 277.206L2189.52 862.215" stroke="#967BFF"/>
<path opacity="0.2" d="M604.665 311.618L2101.47 896.627" stroke="#967BFF"/>
<path opacity="0.2" d="M516.618 346.03L2013.43 931.04" stroke="#967BFF"/>
<path opacity="0.2" d="M428.57 380.442L1925.38 965.452" stroke="#967BFF"/>
<path opacity="0.2" d="M340.523 414.855L1837.33 999.864" stroke="#967BFF"/>
<path opacity="0.2" d="M252.475 449.267L1749.28 1034.28" stroke="#967BFF"/>
<path opacity="0.2" d="M164.428 483.679L1661.24 1068.69" stroke="#967BFF"/>
<path opacity="0.2" d="M76.3975 518.092L1573.2 1103.1" stroke="#967BFF"/>
<path opacity="0.2" d="M-11.6501 552.504L1485.16 1137.51" stroke="#967BFF"/>
<path opacity="0.2" d="M-99.6973 586.917L1397.11 1171.93" stroke="#967BFF"/>
<path opacity="0.2" d="M-187.745 621.329L1309.06 1206.34" stroke="#967BFF"/>
<path opacity="0.2" d="M-275.792 655.741L1221.02 1240.75" stroke="#967BFF"/>
</g>
</svg>
