<svg width="87" height="87" viewBox="0 0 87 87" fill="none" xmlns="http://www.w3.org/2000/svg">
<path d="M52.9763 29.2764C52.9763 28.5068 53.6009 27.8823 54.3704 27.8823C55.14 27.8823 55.7646 28.5068 55.7646 29.2764C55.7646 30.0459 55.14 30.6705 54.3704 30.6705C53.6009 30.6705 52.9763 30.0459 52.9763 29.2764ZM59.9469 30.6705C60.7165 30.6705 61.341 30.0459 61.341 29.2764C61.341 28.5068 60.7165 27.8823 59.9469 27.8823C59.1774 27.8823 58.5528 28.5068 58.5528 29.2764C58.5528 30.0459 59.1774 30.6705 59.9469 30.6705ZM80.8586 27.8823H69.7057V30.6705H80.8586V27.8823ZM79.4645 78.0704H76.6763C75.9067 78.0704 75.2822 78.6936 75.2822 79.4645C75.2822 80.2354 75.9067 80.8586 76.6763 80.8586H79.4645C80.234 80.8586 80.8586 80.2354 80.8586 79.4645C80.8586 78.6936 80.234 78.0704 79.4645 78.0704ZM57.1587 78.0704H54.3704C53.6009 78.0704 52.9763 78.6936 52.9763 79.4645C52.9763 80.2354 53.6009 80.8586 54.3704 80.8586H57.1587C57.9282 80.8586 58.5528 80.2354 58.5528 79.4645C58.5528 78.6936 57.9282 78.0704 57.1587 78.0704ZM71.0998 78.0704H62.7351C61.9656 78.0704 61.341 78.6936 61.341 79.4645C61.341 80.2354 61.9656 80.8586 62.7351 80.8586H71.0998C71.8694 80.8586 72.4939 80.2354 72.4939 79.4645C72.4939 78.6936 71.8694 78.0704 71.0998 78.0704ZM78.0704 50.1881V52.9763C78.0704 58.6532 73.8044 63.343 68.3116 64.0331V66.9175H72.4939V69.7057H61.341V66.9175H65.5234V64.0331C60.0305 63.343 55.7646 58.6532 55.7646 52.9763V50.1881C55.7646 48.6504 57.0151 47.3999 58.5528 47.3999H61.341V43.2175C61.341 40.9117 63.2175 39.0352 65.5234 39.0352H68.3116C70.6175 39.0352 72.4939 40.9117 72.4939 43.2175V47.3999H75.2822C76.8199 47.3999 78.0704 48.6504 78.0704 50.1881ZM64.1292 54.3704C64.1292 55.14 64.7552 55.7646 65.5234 55.7646H68.3116C69.0797 55.7646 69.7057 55.14 69.7057 54.3704V52.9763H64.1292V54.3704ZM64.1292 43.2175V50.1881H69.7057V43.2175C69.7057 42.4494 69.0797 41.8234 68.3116 41.8234H65.5234C64.7552 41.8234 64.1292 42.4494 64.1292 43.2175ZM75.2822 50.1881H72.4939V54.3704C72.4939 56.6763 70.6175 58.5528 68.3116 58.5528H65.5234C63.2175 58.5528 61.341 56.6763 61.341 54.3704V50.1881H58.5528V52.9763C58.5528 57.5895 62.3043 61.341 66.9175 61.341C71.5306 61.341 75.2822 57.5895 75.2822 52.9763V50.1881ZM25.094 44.6103H27.8823C27.8823 43.8421 28.5082 43.2161 29.2764 43.2161C30.0445 43.2161 30.6705 43.8421 30.6705 44.6103H33.4587C33.4587 42.3044 31.5823 40.4279 29.2764 40.4279C26.9705 40.4279 25.094 42.303 25.094 44.6103ZM0 42.5567C0 30.6203 9.7114 20.9089 21.6478 20.9089H25.3311C30.3959 20.9089 35.3687 19.5315 39.7127 16.9273C40.1435 16.668 40.6802 16.6611 41.1166 16.9092C41.553 17.1574 41.8234 17.6216 41.8234 18.1235V26.4868C41.8234 30.2174 39.9748 33.5187 37.1531 35.5443C37.3846 35.6977 37.6048 35.8747 37.8056 36.0769C38.5947 36.8673 39.0296 37.9185 39.0296 39.0366L39.0268 43.198C39.0268 44.6214 39.6054 46.0113 40.6147 47.0123C41.394 47.7846 41.8234 48.8163 41.8234 49.9149C41.8234 51.4721 40.9577 52.8746 39.5636 53.573L39.0352 53.8365V58.8149C39.0352 62.5121 36.0267 65.522 32.3295 65.522C32.1064 65.522 31.8834 65.5094 31.6603 65.4885L29.4939 65.2724C31.6548 67.1614 33.0628 69.8144 33.3667 72.724C34.1809 72.993 34.8821 73.4991 35.3882 74.1683L35.4983 74.0581C36.5091 73.0488 37.8488 72.4939 39.2736 72.4939C42.218 72.4939 44.6116 74.889 44.6116 77.8306V81.0984C44.6116 84.04 42.218 86.4351 39.2736 86.4351H32.0646L20.9117 86.4337C15.5318 86.4337 11.1529 82.0548 11.1529 76.6749V68.3088C11.1529 66.4463 11.8779 64.6966 13.1939 63.3806C13.4239 63.1506 13.6832 62.9624 13.9384 62.7686C5.56809 59.5789 0 51.5794 0 42.5567ZM32.0646 83.6468C32.8328 83.6468 33.4587 83.0223 33.4587 82.2527V76.6763C33.4587 75.9067 32.8328 75.2822 32.0646 75.2822H24.4444L22.0716 78.8441L19.7518 77.298L22.3044 73.467V68.3116C22.3044 67.1935 21.8695 66.1437 21.0804 65.3547C20.2969 64.5712 19.2569 64.139 18.1486 64.132C18.1402 64.1306 18.1318 64.1292 18.1235 64.1292L18.1221 64.1278C17.0054 64.1278 15.9556 64.5628 15.1666 65.3519C14.3761 66.1409 13.9411 67.1907 13.9411 68.3088V76.6749C13.9411 80.5184 17.0681 83.6454 20.9117 83.6454L32.0646 83.6468ZM37.471 76.028L36.247 77.2534V82.2527C36.247 82.7435 36.1466 83.2091 35.9904 83.6468H39.275C40.6802 83.6468 41.8234 82.5037 41.8234 81.0984V77.8306C41.8234 76.4253 40.6802 75.2822 39.2736 75.2822C38.5933 75.2822 37.9534 75.547 37.471 76.028ZM25.048 65.7757L24.5364 65.5833C24.8989 66.4351 25.094 67.3566 25.094 68.3102V72.4939H30.552C30.0515 69.4757 27.9673 66.8715 25.048 65.7757ZM36.247 57.1573V54.3691H30.9089C31.4847 55.9918 33.0349 57.1573 34.8528 57.1573H36.247ZM30.7109 37.6397C30.6984 37.6397 30.6844 37.6411 30.6705 37.6411L22.3058 37.6397C20.7681 37.6397 19.5176 38.8902 19.5176 40.4279V43.2161H17.8879C15.7117 43.2161 13.9411 44.9867 13.9411 47.1643C13.9411 48.5417 14.6758 49.8382 15.858 50.5478L20.9117 53.58V54.3691C20.9117 56.8269 20.237 59.2596 19.006 61.3801C19.7713 61.4205 20.5297 61.5027 21.2798 61.6463L31.9405 62.7128C33.8338 62.9122 35.5248 61.6742 36.0588 59.9455H34.8528C31.0093 59.9455 27.8823 56.8185 27.8823 52.9749V51.5808H37.3107L38.3144 51.0789C38.7592 50.8559 39.0352 50.4098 39.0352 49.9149C39.0352 49.5663 38.8986 49.2387 38.6504 48.9919C37.1155 47.4696 36.2372 45.3575 36.2386 43.1952L36.2414 39.0338C36.2414 38.6616 36.0964 38.3116 35.8329 38.0468C35.5694 37.7833 35.2195 37.6383 34.8473 37.6383H30.7109V37.6397ZM2.78823 42.5567C2.78823 50.6872 7.97154 57.878 15.6852 60.4502L16.1787 60.6133C17.2773 58.9905 17.9576 57.0945 18.0956 55.1414L14.4221 52.9359C12.4048 51.7272 11.1529 49.5147 11.1529 47.1629C11.1529 43.8435 13.5647 41.0776 16.7294 40.5269V40.4265C16.7294 37.3511 19.2304 34.8501 22.3058 34.8501H30.7095C35.3031 34.8264 39.0352 31.0846 39.0352 26.4854V20.474C34.7887 22.5888 30.0961 23.6971 25.3311 23.6971H21.6478C11.2477 23.6985 2.78823 32.158 2.78823 42.5567ZM16.7294 48.7926H19.5176V46.0044H16.7294V48.7926ZM66.9175 22.3058C64.6116 22.3058 62.7351 20.4293 62.7351 18.1235C62.7351 15.8176 64.6116 13.9411 66.9175 13.9411C69.2233 13.9411 71.0998 15.8176 71.0998 18.1235C71.0998 20.4293 69.2233 22.3058 66.9175 22.3058ZM68.3116 18.1235C68.3116 17.3553 67.6856 16.7294 66.9175 16.7294C66.1493 16.7294 65.5234 17.3553 65.5234 18.1235C65.5234 18.8916 66.1493 19.5176 66.9175 19.5176C67.6856 19.5176 68.3116 18.8916 68.3116 18.1235ZM51.6589 22.8551C49.9427 22.2501 48.794 20.6426 48.794 18.8178V17.4292C48.794 15.5736 49.979 13.937 51.7411 13.357C52.1636 13.219 52.494 12.9165 52.6445 12.5261C52.7156 12.3449 52.7895 12.1623 52.869 11.9824C53.0349 11.6004 53.0154 11.1571 52.816 10.764C51.9795 9.10635 52.2988 7.11138 53.6107 5.79951L54.5935 4.81666C55.9054 3.5048 57.9003 3.18555 59.5579 4.02202C59.9497 4.22138 60.3944 4.2395 60.775 4.075C60.9562 3.99553 61.1389 3.92164 61.3229 3.85054C61.7105 3.69998 62.013 3.37097 62.151 2.94995C62.7309 1.185 64.3676 0 66.2232 0H67.6117C69.4687 0 71.104 1.185 71.6839 2.94855C71.822 3.37097 72.1245 3.69998 72.5148 3.85194C72.6961 3.92164 72.8787 3.99692 73.0585 4.075C73.4405 4.24089 73.8839 4.21998 74.277 4.02202C75.9332 3.18416 77.9282 3.50341 79.2414 4.81666L80.2229 5.79812C81.5348 7.10998 81.854 9.10635 81.0175 10.7626C80.8182 11.1571 80.8001 11.6004 80.9646 11.981C81.044 12.1622 81.1179 12.3449 81.189 12.5289C81.3396 12.9165 81.6686 13.219 82.0896 13.357C83.8559 13.937 85.041 15.5736 85.041 17.4292V18.8178C85.041 20.6426 83.8922 22.2515 82.176 22.8551C84.6771 23.9146 86.4351 26.3948 86.4351 29.2764V79.4645C86.4351 83.3081 83.3081 86.4351 79.4645 86.4351H54.3704C50.5269 86.4351 47.3999 83.3081 47.3999 79.4645V29.2764C47.3999 26.3948 49.1592 23.9146 51.6589 22.8551ZM50.1881 72.4939H83.6468V36.247H50.1881V72.4939ZM83.6468 79.4645V75.2822H50.1881V79.4645C50.1881 81.7704 52.0646 83.6468 54.3704 83.6468H79.4645C81.7704 83.6468 83.6468 81.7704 83.6468 79.4645ZM51.5822 18.8178C51.5822 19.466 51.9963 20.0376 52.6125 20.2411C53.6804 20.5911 54.5266 21.3411 55.0312 22.3058H58.1109C57.4919 21.0079 57.1587 19.5831 57.1587 18.1235C57.1587 12.7422 61.5362 8.36468 66.9175 8.36468C72.2988 8.36468 76.6763 12.7422 76.6763 18.1235C76.6763 19.5831 76.3445 21.0079 75.7241 22.3058H78.8037C79.3084 21.3397 80.1546 20.5911 81.2225 20.2411C81.8387 20.039 82.2527 19.466 82.2527 18.8178V17.4292C82.2527 16.781 81.8387 16.2094 81.2225 16.0058C80.0054 15.6057 79.0463 14.7065 78.5918 13.5368C78.5332 13.3849 78.4719 13.2371 78.4078 13.0893C77.9115 11.9476 77.9561 10.6413 78.529 9.50507C78.8218 8.92651 78.7103 8.22806 78.2516 7.7694L77.2702 6.78933C76.8115 6.32928 76.113 6.21775 75.5359 6.51051C74.3983 7.08349 73.092 7.1281 71.9502 6.6318C71.8052 6.56906 71.6561 6.50772 71.5069 6.44917C70.3358 5.9933 69.4352 5.03415 69.0365 3.81848C68.833 3.20228 68.26 2.78823 67.6117 2.78823H66.2232C65.5749 2.78823 65.0033 3.20228 64.7998 3.81848C64.4011 5.03554 63.5005 5.99469 62.3308 6.44917C62.1789 6.50772 62.0311 6.56906 61.8833 6.6318C60.7429 7.1281 59.4367 7.08349 58.2991 6.51051C57.7191 6.21775 57.0221 6.32788 56.5648 6.78794L55.5833 7.77079C55.1247 8.22945 55.0131 8.92651 55.3059 9.50646C55.8803 10.6413 55.9235 11.9489 55.4272 13.0921C55.3644 13.2371 55.3031 13.3863 55.2446 13.5355C54.7887 14.7065 53.8295 15.6071 52.6139 16.0058C51.9963 16.208 51.5822 16.781 51.5822 17.4292V18.8178ZM66.9175 22.3058H72.4465C73.3639 21.0971 73.888 19.6417 73.888 18.1235C73.888 14.2799 70.761 11.1529 66.9175 11.1529C63.0739 11.1529 59.9469 14.2799 59.9469 18.1235C59.9469 19.6417 60.4711 21.0971 61.3884 22.3058H66.9175ZM50.1881 29.2764V33.4587H83.6468V29.2764C83.6468 26.9705 81.7704 25.094 79.4645 25.094H54.3704C52.0646 25.094 50.1881 26.9705 50.1881 29.2764Z" fill="url(#paint0_linear_72_2036)"/>
<defs>
<linearGradient id="paint0_linear_72_2036" x1="35.3937" y1="37.2565" x2="86.4351" y2="86.4351" gradientUnits="userSpaceOnUse">
<stop stop-color="#9E0FE2"/>
<stop offset="1" stop-color="#13064F"/>
</linearGradient>
</defs>
</svg>
