<svg width="58" height="58" viewBox="0 0 58 58" fill="none" xmlns="http://www.w3.org/2000/svg">
<path d="M29.204 40.3361C28.0653 40.3361 26.9827 40.1308 25.956 39.7201C24.948 39.2908 24.08 38.6935 23.352 37.9281C22.6427 37.1441 22.1573 36.2201 21.896 35.1561L25.228 33.9801C25.564 34.9321 26.0773 35.6601 26.768 36.1641C27.4587 36.6495 28.2707 36.8921 29.204 36.8921C29.9507 36.8921 30.5947 36.7521 31.136 36.4721C31.696 36.1921 32.1347 35.7908 32.452 35.2681C32.7693 34.7268 32.928 34.0921 32.928 33.3641C32.928 32.6361 32.7693 32.0201 32.452 31.5161C32.1533 30.9935 31.724 30.5921 31.164 30.3121C30.604 30.0321 29.9413 29.8921 29.176 29.8921C28.8213 29.8921 28.448 29.9295 28.056 30.0041C27.6827 30.0788 27.3467 30.1908 27.048 30.3401L26.18 28.5201L31.584 22.3601H23.072V19.1401H35.868V22.1361L30.436 28.4921L30.492 27.0641C31.7427 27.0828 32.8347 27.3535 33.768 27.8761C34.7013 28.3988 35.4293 29.1175 35.952 30.0321C36.4747 30.9468 36.736 32.0201 36.736 33.2521C36.736 34.5961 36.4093 35.8095 35.756 36.8921C35.1027 37.9561 34.2067 38.7961 33.068 39.4121C31.9293 40.0281 30.6413 40.3361 29.204 40.3361Z" fill="#12054E"/>
<circle cx="29" cy="29" r="26" stroke="url(#paint0_linear_238_19)" stroke-width="6"/>
<defs>
<linearGradient id="paint0_linear_238_19" x1="54.987" y1="42.5584" x2="2.25974" y2="15.8182" gradientUnits="userSpaceOnUse">
<stop stop-color="#20075C"/>
<stop offset="1" stop-color="#760DB8"/>
</linearGradient>
</defs>
</svg>
