<svg width="58" height="62" viewBox="0 0 58 62" fill="none" xmlns="http://www.w3.org/2000/svg">
<path d="M22.2879 42V39.116L27.9439 33.208C29.064 32.032 29.9226 31.0986 30.5199 30.408C31.1359 29.6986 31.5653 29.092 31.8079 28.588C32.0506 28.084 32.1719 27.5706 32.1719 27.048C32.1719 26.1706 31.8919 25.48 31.3319 24.976C30.7906 24.472 30.0906 24.22 29.2319 24.22C28.3359 24.22 27.5613 24.4813 26.9079 25.004C26.2546 25.508 25.7786 26.2546 25.4799 27.244L22.1479 26.208C22.3719 25.1066 22.8293 24.1546 23.5199 23.352C24.2106 22.5306 25.0506 21.9053 26.0399 21.476C27.0479 21.028 28.1119 20.804 29.2319 20.804C30.5759 20.804 31.7519 21.0466 32.7599 21.532C33.7866 22.0173 34.5799 22.6986 35.1399 23.576C35.7186 24.4533 36.0079 25.48 36.0079 26.656C36.0079 27.4026 35.8679 28.14 35.5879 28.868C35.308 29.596 34.888 30.3426 34.3279 31.108C33.7679 31.8546 33.04 32.6946 32.144 33.628L27.2439 38.78H36.2879V42H22.2879Z" fill="#12054E"/>
<circle cx="29" cy="31" r="26" stroke="url(#paint0_linear_152_736)" stroke-width="6"/>
<defs>
<linearGradient id="paint0_linear_152_736" x1="54.987" y1="44.5584" x2="2.25974" y2="17.8182" gradientUnits="userSpaceOnUse">
<stop stop-color="#20075C"/>
<stop offset="1" stop-color="#760DB8"/>
</linearGradient>
</defs>
</svg>
