<svg width="87" height="87" viewBox="0 0 87 87" fill="none" xmlns="http://www.w3.org/2000/svg">
<g clip-path="url(#clip0_72_2039)">
<path d="M75.1101 67.2513C74.443 66.1057 72.6017 65.4824 71.4846 64.8877C69.8611 64.0175 68.2369 63.1473 66.6419 62.234C64.9453 61.2125 63.0941 60.473 61.1612 60.0449C60.2101 59.8478 59.2861 59.5411 58.406 59.1309C56.7439 58.3749 55.1522 57.4722 53.6501 56.4341H33.3498C31.8477 57.4722 30.256 58.3749 28.594 59.1309C27.7138 59.5411 26.7899 59.8478 25.8387 60.0449C23.9059 60.473 22.0546 61.2125 20.3581 62.234C18.7631 63.1473 17.1388 64.0175 15.5153 64.8877C14.3982 65.4824 12.5569 66.1057 11.8899 67.2513C11.5938 67.9815 11.5035 68.7786 11.629 69.5566C11.6144 70.0351 11.6144 70.5137 11.629 70.9777C11.6356 71.7742 11.9589 72.5348 12.5277 73.0924C13.0959 73.65 13.8632 73.9586 14.6597 73.95H72.3402C73.1367 73.9586 73.904 73.65 74.4722 73.0924C75.0411 72.5348 75.3643 71.7742 75.3709 70.9777C75.3855 70.5137 75.3855 70.0351 75.3709 69.5566C75.4964 68.7786 75.4061 67.9815 75.1101 67.2513Z" fill="#EBC6FF"/>
<path d="M33.7852 73.9499H14.6597C13.8632 73.9585 13.0959 73.6499 12.5277 73.0923C11.9589 72.5348 11.6356 71.7741 11.629 70.9776C11.6144 70.5136 11.6144 70.0351 11.629 69.5565C11.5035 68.7786 11.5938 67.9814 11.8899 67.2513C12.5569 66.1056 14.3982 65.4824 15.5153 64.8876C17.1388 64.0174 18.7631 63.1473 20.3581 62.2339C22.0546 61.2124 23.9059 60.473 25.8387 60.0449C26.7899 59.8477 27.7138 59.5411 28.594 59.1309C28.3185 60.9144 27.0428 70.6729 33.7852 73.9499Z" fill="#EBC6FF"/>
<path d="M75.3709 69.5565C75.3855 70.0351 75.3855 70.5136 75.3709 70.9776C75.3643 71.7741 75.0411 72.5348 74.4722 73.0923C73.904 73.6499 73.1367 73.9585 72.3402 73.9499H53.2147C58.9715 71.1515 58.8845 63.6258 58.5653 60.3781C58.5075 59.8271 58.4498 59.3917 58.406 59.1309C59.2861 59.5411 60.2101 59.8477 61.1612 60.0449C63.0941 60.473 64.9453 61.2124 66.6419 62.2339C68.2369 63.1473 69.8611 64.0174 71.4846 64.8876C72.6017 65.4824 74.443 66.1056 75.1101 67.2513C75.4061 67.9814 75.4964 68.7786 75.3709 69.5565Z" fill="#EBC6FF"/>
<path d="M71.4561 69.5564C71.4707 70.0349 71.4707 70.5135 71.4561 70.9775C71.4488 71.774 71.1255 72.5346 70.5574 73.0922C69.9885 73.6498 69.2219 73.9584 68.4254 73.9498H53.2147C58.9715 71.1514 58.8845 63.6257 58.5653 60.3779C60.0182 60.8372 61.4141 61.4599 62.727 62.2338C64.322 63.1471 65.9463 64.0173 67.5698 64.8875C68.6862 65.4822 70.5282 66.1055 71.1952 67.2511C71.4913 67.9813 71.5816 68.7784 71.4561 69.5564Z" fill="#EBC6FF"/>
<path d="M53.6502 52.6206V60.8997C53.6502 60.8997 52.1999 68.1499 43.5 68.1499C34.8002 68.1499 33.3499 60.8997 33.3499 60.8997V52.6206H53.6502Z" fill="#C095D7"/>
<path d="M58.2467 31.6102C59.0286 30.7407 60.2088 30.3451 61.3571 30.5661C62.9521 31.1317 62.1516 36.2791 62.1516 36.2791C61.4487 38.7801 59.5994 40.7986 57.1694 41.7166H29.8352C27.4046 40.7953 25.552 38.7795 24.8398 36.2791C24.8398 36.2791 24.0599 31.1317 25.6622 30.5661C26.8058 30.3451 27.9814 30.7414 28.758 31.6102H58.2467Z" fill="#EBC6FF"/>
<path d="M58.2029 40.6726C58.2029 44.5296 59.3339 47.8504 54.8098 51.7215C50.2863 55.5932 50.2863 59.4502 45.7621 59.4502H41.2379C36.7137 59.4502 36.7137 55.5786 32.1902 51.7215C27.6661 47.8644 28.7971 44.5296 28.7971 40.6726C28.7971 36.8155 27.1006 35.699 27.6661 24.6501C28.1446 15.4279 38.0479 13.5289 41.3249 13.1372C41.9773 13.0649 42.369 13.0503 42.369 13.0503H44.631C44.631 13.0503 58.7684 13.6012 59.3339 24.6501C59.8995 35.699 58.2029 36.8009 58.2029 40.6726Z" fill="#EBC6FF"/>
<path d="M53.8533 40.6725C53.8533 44.5296 54.9843 47.8504 50.4602 51.7214C45.936 55.5931 45.936 59.4502 41.4118 59.4502H41.2379C36.7137 59.4502 36.7137 55.5785 32.1902 51.7214C27.6661 47.8643 28.7971 44.5296 28.7971 40.6725C28.7971 36.8154 27.1006 35.699 27.6661 24.6501C28.1446 15.4278 38.0479 13.5288 41.3249 13.1372C44.6018 13.5288 54.5058 15.4278 54.9843 24.6501C55.5492 35.699 53.8533 36.8008 53.8533 40.6725Z" fill="#F6E6FF"/>
<path d="M15.9793 70.9777C15.9647 70.5138 15.9647 70.0352 15.9793 69.5566C15.8538 68.7787 15.9441 67.9815 16.2401 67.2514C16.9072 66.1057 18.7485 65.4825 19.8649 64.8877C21.4891 64.0176 23.1127 63.1474 24.7077 62.234C26.4049 61.2125 28.2555 60.4731 30.189 60.045C31.1395 59.8478 32.0641 59.5412 32.9443 59.131C34.6063 58.375 36.198 57.4722 37.7001 56.4341V52.8094C37.345 52.4469 36.9753 52.0839 36.5398 51.7175C32.2221 48.021 33.0597 44.827 33.1381 41.189C31.2105 40.1542 29.7854 38.3806 29.19 36.2745C29.19 36.2745 28.4101 31.1271 30.0118 30.5615C30.655 30.3598 31.3526 30.4348 31.938 30.7693C31.8796 29.1351 31.8869 27.1571 32.0157 24.6461C32.4929 15.4398 42.3603 13.5315 45.6545 13.1359C45.0167 13.0662 44.631 13.0503 44.631 13.0503H42.3689C42.3689 13.0503 41.9773 13.0649 41.3249 13.1372C38.0479 13.5289 28.1446 15.4279 27.6661 24.6501C27.5366 27.1618 27.53 29.1451 27.5877 30.7733C27.0036 30.4401 26.3067 30.3644 25.6648 30.5662C24.0625 31.1317 24.8431 36.2791 24.8431 36.2791C25.4378 38.3846 26.8629 40.1581 28.7911 41.1929C28.7068 44.831 27.8745 48.0257 32.1929 51.7215C32.6276 52.0872 32.9974 52.4469 33.3531 52.8133V56.4388C31.8504 57.4769 30.2587 58.3789 28.5966 59.1356C27.7172 59.5458 26.7925 59.8525 25.842 60.049C23.9085 60.4777 22.0573 61.2172 20.3607 62.2387C18.7657 63.152 17.1422 64.0222 15.518 64.8917C14.4015 65.4865 12.5596 66.1097 11.8932 67.2554C11.5965 67.9855 11.5062 68.7833 11.6317 69.5613C11.6171 70.0398 11.6171 70.5177 11.6317 70.9817C11.6489 72.6378 13.0037 73.966 14.6597 73.95H19.0093C18.2135 73.9587 17.4462 73.65 16.878 73.0924C16.3092 72.5349 15.9859 71.7742 15.9793 70.9777Z" fill="white"/>
<path d="M7.25024 43.5H79.7498V46.4H7.25024V43.5Z" fill="white"/>
<path d="M76.8266 70.9815V69.5524C76.8266 69.4071 76.8266 69.2531 76.8372 69.1024C76.9361 68.2136 76.7695 67.3156 76.3573 66.5217C75.4971 65.3628 74.3129 64.4853 72.9535 64.0001C72.6641 63.8654 72.4026 63.7393 72.1676 63.6145C70.5567 62.7443 68.9458 61.8847 67.3594 60.9767C65.5294 59.8662 63.5249 59.0717 61.4307 58.6277C59.1706 57.9984 57.0313 56.9981 55.0998 55.6666V53.4324C55.3115 53.2307 55.51 53.0295 55.745 52.8291C56.1452 52.4899 56.5262 52.1301 56.888 51.7505C57.2583 51.3781 57.3984 50.8345 57.2543 50.3294C57.1096 49.8243 56.7034 49.4366 56.1917 49.3165C55.6806 49.1957 55.1443 49.3616 54.7898 49.7492C54.4984 50.0559 54.1911 50.3466 53.8692 50.6194C52.3704 51.9357 51.0449 53.4364 49.9251 55.0872C48.4297 57.1588 47.7367 57.9998 45.7621 57.9998H41.2379C39.2632 57.9998 38.5756 57.1588 37.0748 55.0852C35.9537 53.4338 34.6269 51.931 33.1268 50.6135C32.8055 50.3407 32.4995 50.0499 32.2101 49.7439C31.8557 49.3556 31.3194 49.1904 30.8083 49.3105C30.2965 49.4306 29.8903 49.8183 29.7456 50.3234C29.6016 50.8285 29.7416 51.3721 30.112 51.7445C30.4717 52.1228 30.8521 52.4813 31.2503 52.8191C31.488 53.0209 31.6851 53.2234 31.9001 53.4265V55.664C29.9673 56.9928 27.828 57.9918 25.5692 58.6217C23.4751 59.0657 21.4712 59.8603 19.6419 60.9707C18.0542 61.8787 16.4432 62.7443 14.8323 63.6085C14.5973 63.7333 14.3292 63.8594 14.0464 63.9941C12.6877 64.4794 11.5042 65.3562 10.6446 66.5144C10.2311 67.3083 10.0639 68.207 10.1628 69.0971C10.1628 69.2418 10.1747 69.3971 10.1734 69.5491V70.9749C10.194 73.4341 12.2005 75.4128 14.6597 75.4002H72.3402C74.7968 75.4128 76.802 73.4381 76.8266 70.9815ZM13.0733 70.9729V69.5737C13.0733 69.3825 13.0733 69.1894 13.0601 68.9936C13.0103 68.6531 13.0408 68.3059 13.1483 67.9787C13.7497 67.374 14.4778 66.9094 15.2803 66.6186C15.6135 66.462 15.9268 66.3126 16.2023 66.1666C17.8365 65.2964 19.4706 64.4103 21.0816 63.4897C22.6341 62.5405 24.3346 61.8582 26.1128 61.4712C26.3757 61.4221 26.6439 61.355 26.912 61.2814C26.7282 64.3944 27.0089 69.123 29.7064 72.4956H14.6597C13.8021 72.5102 13.0939 71.8305 13.0733 70.9729ZM52.2928 72.5002H34.1344C29.3493 69.9115 29.5697 63.1127 29.9295 60.1185C30.6417 59.7746 31.3127 59.4122 31.9041 59.0704V60.8997C31.9041 61.7009 32.5533 62.35 33.3544 62.35C34.1549 62.35 34.8041 61.7009 34.8041 60.8997V56.8846C36.3035 58.9642 37.7611 60.8997 41.2379 60.8997H45.7621C49.2421 60.8997 50.6918 58.9642 52.1998 56.8846V60.8997C52.1998 61.7009 52.849 62.35 53.6501 62.35C54.4506 62.35 55.0998 61.7009 55.0998 60.8997V59.0704C55.6919 59.4122 56.3629 59.7746 57.0751 60.1185C57.4302 63.1127 57.6546 69.9115 52.8696 72.5002H52.2928ZM73.9399 68.9969C73.9326 69.1894 73.9253 69.3825 73.9266 69.577V70.9802C73.9047 71.8364 73.1965 72.5148 72.3402 72.5002H57.2935C59.991 69.127 60.2718 64.399 60.0879 61.2853C60.3561 61.3597 60.6242 61.4307 60.8871 61.4758C62.6653 61.8628 64.3665 62.5452 65.9197 63.4943C67.5293 64.415 69.1635 65.2938 70.7977 66.1706C71.0731 66.316 71.3864 66.4607 71.7196 66.6233C72.5228 66.914 73.2509 67.3786 73.8529 67.9847C73.9591 68.3112 73.989 68.657 73.9399 68.9969Z" fill="url(#paint0_linear_72_2039)"/>
<path d="M65.0124 36.5164C65.331 34.6015 65.791 30.0507 63.1897 29.1912C62.4483 28.9482 61.6511 28.9323 60.8997 29.1447C60.8997 28.3024 60.8911 27.4382 60.8593 26.5461C60.8593 26.1824 60.8447 25.7881 60.8274 25.3659L60.7856 24.5727C60.2811 14.7896 50.0367 11.81 44.631 11.5996H42.3112C36.962 11.8087 26.7176 14.7896 26.2158 24.5741L26.1713 25.4443C26.1554 25.8246 26.1421 26.191 26.1434 26.5202C26.1129 27.4335 26.1003 28.3024 26.1003 29.1447C25.3569 28.9316 24.567 28.9462 23.8322 29.1865C21.2104 30.0468 21.6571 34.5955 21.9823 36.5821C22.7768 39.2803 24.715 41.4939 27.2844 42.6382C27.2705 42.9283 27.2572 43.2184 27.2472 43.4985H24.65C23.8495 43.4985 23.2003 44.1476 23.2003 44.9481C23.2003 45.7493 23.8495 46.3984 24.65 46.3984H81.2001C82.0006 46.3984 82.6497 45.7493 82.6497 44.9481C82.6497 44.1476 82.0006 43.4985 81.2001 43.4985H59.7501C59.7402 43.2084 59.7269 42.927 59.7123 42.6382C62.3003 41.4859 64.2424 39.2431 65.0124 36.5164ZM62.1655 35.9595C61.7401 37.281 60.8918 38.426 59.7514 39.2179C59.8271 38.6291 59.9386 38.0576 60.0694 37.4038C60.4258 35.7398 60.6641 34.0525 60.7823 32.3553C61.1659 32.0526 61.6432 31.8933 62.131 31.9039C62.4211 33.2394 62.433 34.62 62.1655 35.9595ZM24.8345 36.0411C24.5564 34.6745 24.5703 33.2646 24.8763 31.9039C25.3622 31.896 25.8354 32.0553 26.2178 32.3553C26.3359 34.0525 26.5742 35.7398 26.9306 37.4038C27.0614 38.055 27.1729 38.6305 27.2486 39.2205C26.1288 38.4433 25.2838 37.3322 24.8345 36.0451V36.0411ZM30.1512 43.4998C30.1631 43.2429 30.1731 42.9867 30.1864 42.7285L30.2149 41.7773C30.2182 41.7249 30.2182 41.6725 30.2149 41.6207L30.2428 40.6722C30.2242 39.3805 30.0656 38.0948 29.7702 36.837C29.3918 35.0913 29.1569 33.3184 29.0666 31.5342C28.9843 29.9917 28.9757 28.388 29.0394 26.5494C29.0394 26.2315 29.052 25.9009 29.0653 25.5259L29.1104 24.7234C29.6003 15.1421 41.899 14.5201 42.365 14.4996H44.57C44.6994 14.4996 57.3898 15.1102 57.881 24.7254L57.9248 25.5053C57.9374 25.8638 57.952 26.2202 57.9533 26.6012C58.0157 28.3761 58.0071 29.9903 57.9248 31.5316C57.8345 33.3164 57.5995 35.0906 57.2212 36.837C56.9252 38.0948 56.7672 39.3805 56.7486 40.6722L56.7765 41.6207C56.7732 41.6725 56.7732 41.7249 56.7765 41.7773L56.805 42.7285C56.8183 42.9867 56.8283 43.2429 56.8402 43.4998H30.1512Z" fill="url(#paint1_linear_72_2039)"/>
<path d="M1.45031 13.0501C2.2508 13.0501 2.89996 12.401 2.89996 11.5998V7.25022C2.89996 4.84742 4.84742 2.89996 7.25022 2.89996H11.5998C12.401 2.89996 13.0501 2.2508 13.0501 1.45031C13.0501 0.649155 12.401 0 11.5998 0H7.25022C3.24776 0.00464631 0.00464631 3.24776 0 7.25022V11.5998C0 12.401 0.649155 13.0501 1.45031 13.0501Z" fill="url(#paint2_linear_72_2039)"/>
<path d="M11.5998 84.0999H7.25022C4.84742 84.0999 2.89996 82.1524 2.89996 79.7496V75.4C2.89996 74.5989 2.2508 73.9497 1.45031 73.9497C0.649155 73.9497 0 74.5989 0 75.4V79.7496C0.00464631 83.7521 3.24776 86.9952 7.25022 86.9998H11.5998C12.401 86.9998 13.0501 86.3507 13.0501 85.5495C13.0501 84.749 12.401 84.0999 11.5998 84.0999Z" fill="url(#paint3_linear_72_2039)"/>
<path d="M85.5497 73.9497C84.7492 73.9497 84.1001 74.5989 84.1001 75.4V79.7496C84.1001 82.1524 82.1526 84.0999 79.7498 84.0999H75.4002C74.599 84.0999 73.9499 84.749 73.9499 85.5495C73.9499 86.3507 74.599 86.9998 75.4002 86.9998H79.7498C83.7523 86.9952 86.9954 83.7521 87 79.7496V75.4C87 74.5989 86.3509 73.9497 85.5497 73.9497Z" fill="url(#paint4_linear_72_2039)"/>
<path d="M79.7498 0H75.4002C74.599 0 73.9499 0.649155 73.9499 1.45031C73.9499 2.2508 74.599 2.89996 75.4002 2.89996H79.7498C82.1526 2.89996 84.1001 4.84742 84.1001 7.25022V11.5998C84.1001 12.401 84.7492 13.0501 85.5497 13.0501C86.3509 13.0501 87 12.401 87 11.5998V7.25022C86.9954 3.24776 83.7523 0.00464631 79.7498 0Z" fill="url(#paint5_linear_72_2039)"/>
<path d="M8.69988 11.5997V8.69976H11.5998C12.401 8.69976 13.0501 8.05061 13.0501 7.25011C13.0501 6.44896 12.401 5.7998 11.5998 5.7998H8.69988C7.09824 5.7998 5.79993 7.09811 5.79993 8.69976V11.5997C5.79993 12.4009 6.44908 13.05 7.25024 13.05C8.05073 13.05 8.69988 12.4009 8.69988 11.5997Z" fill="url(#paint6_linear_72_2039)"/>
<path d="M11.5998 78.3H8.69988V75.4C8.69988 74.5989 8.05073 73.9497 7.25024 73.9497C6.44908 73.9497 5.79993 74.5989 5.79993 75.4V78.3C5.79993 79.9016 7.09824 81.1999 8.69988 81.1999H11.5998C12.401 81.1999 13.0501 80.5508 13.0501 79.7496C13.0501 78.9491 12.401 78.3 11.5998 78.3Z" fill="url(#paint7_linear_72_2039)"/>
<path d="M78.3002 75.4V78.3H75.4002C74.599 78.3 73.9499 78.9491 73.9499 79.7496C73.9499 80.5508 74.599 81.1999 75.4002 81.1999H78.3002C79.9018 81.1999 81.2001 79.9016 81.2001 78.3V75.4C81.2001 74.5989 80.551 73.9497 79.7498 73.9497C78.9493 73.9497 78.3002 74.5989 78.3002 75.4Z" fill="url(#paint8_linear_72_2039)"/>
<path d="M79.7498 13.05C80.551 13.05 81.2001 12.4009 81.2001 11.5997V8.69976C81.2001 7.09811 79.9018 5.7998 78.3002 5.7998H75.4002C74.599 5.7998 73.9499 6.44896 73.9499 7.25011C73.9499 8.05061 74.599 8.69976 75.4002 8.69976H78.3002V11.5997C78.3002 12.4009 78.9493 13.05 79.7498 13.05Z" fill="url(#paint9_linear_72_2039)"/>
<path d="M18.85 43.5001C18.4664 43.5054 18.0987 43.6561 17.8205 43.9209L17.6466 44.1379C17.5915 44.2189 17.5477 44.3065 17.5159 44.3988C17.4741 44.4811 17.4449 44.5694 17.4289 44.6603C17.413 44.7559 17.403 44.8528 17.3997 44.9504C17.4057 45.334 17.5557 45.7018 17.8205 45.9799C17.9593 46.1106 18.1212 46.2142 18.2991 46.2839C18.8401 46.5029 19.4587 46.3834 19.8795 45.9799C20.0103 45.8411 20.1138 45.6785 20.1842 45.5013C20.2585 45.3267 20.2977 45.1396 20.2997 44.9504C20.3037 44.5641 20.1523 44.193 19.8795 43.9202C19.6067 43.6474 19.2357 43.4961 18.85 43.5001Z" fill="url(#paint10_linear_72_2039)"/>
<path d="M4.35028 44.9503C4.35028 45.7508 4.99944 46.4 5.79993 46.4H13.0501C13.8506 46.4 14.4998 45.7508 14.4998 44.9503C14.4998 44.1492 13.8506 43.5 13.0501 43.5H5.79993C4.99944 43.5 4.35028 44.1492 4.35028 44.9503Z" fill="url(#paint11_linear_72_2039)"/>
</g>
<defs>
<linearGradient id="paint0_linear_72_2039" x1="12.1485" y1="50.8487" x2="28.5897" y2="92.8384" gradientUnits="userSpaceOnUse">
<stop stop-color="#9E0FE1"/>
<stop offset="1" stop-color="#13064F"/>
</linearGradient>
<linearGradient id="paint1_linear_72_2039" x1="23.5707" y1="13.6995" x2="51.3499" y2="62.3285" gradientUnits="userSpaceOnUse">
<stop stop-color="#9E0FE1"/>
<stop offset="1" stop-color="#13064F"/>
</linearGradient>
<linearGradient id="paint2_linear_72_2039" x1="0.393754" y1="0.787508" x2="12.4876" y2="12.8814" gradientUnits="userSpaceOnUse">
<stop stop-color="#9E0FE1"/>
<stop offset="1" stop-color="#13064F"/>
</linearGradient>
<linearGradient id="paint3_linear_72_2039" x1="0.393754" y1="74.7372" x2="12.4876" y2="86.8311" gradientUnits="userSpaceOnUse">
<stop stop-color="#9E0FE1"/>
<stop offset="1" stop-color="#13064F"/>
</linearGradient>
<linearGradient id="paint4_linear_72_2039" x1="74.3436" y1="74.7372" x2="86.4375" y2="86.8311" gradientUnits="userSpaceOnUse">
<stop stop-color="#9E0FE1"/>
<stop offset="1" stop-color="#13064F"/>
</linearGradient>
<linearGradient id="paint5_linear_72_2039" x1="74.3436" y1="0.787508" x2="86.4375" y2="12.8814" gradientUnits="userSpaceOnUse">
<stop stop-color="#9E0FE1"/>
<stop offset="1" stop-color="#13064F"/>
</linearGradient>
<linearGradient id="paint6_linear_72_2039" x1="6.01868" y1="6.23732" x2="12.7376" y2="12.9563" gradientUnits="userSpaceOnUse">
<stop stop-color="#9E0FE1"/>
<stop offset="1" stop-color="#13064F"/>
</linearGradient>
<linearGradient id="paint7_linear_72_2039" x1="6.01868" y1="74.3872" x2="12.7376" y2="81.1062" gradientUnits="userSpaceOnUse">
<stop stop-color="#9E0FE1"/>
<stop offset="1" stop-color="#13064F"/>
</linearGradient>
<linearGradient id="paint8_linear_72_2039" x1="74.1686" y1="74.3872" x2="80.8876" y2="81.1062" gradientUnits="userSpaceOnUse">
<stop stop-color="#9E0FE1"/>
<stop offset="1" stop-color="#13064F"/>
</linearGradient>
<linearGradient id="paint9_linear_72_2039" x1="74.1686" y1="6.23732" x2="80.8876" y2="12.9563" gradientUnits="userSpaceOnUse">
<stop stop-color="#9E0FE1"/>
<stop offset="1" stop-color="#13064F"/>
</linearGradient>
<linearGradient id="paint10_linear_72_2039" x1="17.4872" y1="43.6745" x2="20.1674" y2="46.362" gradientUnits="userSpaceOnUse">
<stop stop-color="#9E0FE1"/>
<stop offset="1" stop-color="#13064F"/>
</linearGradient>
<linearGradient id="paint11_linear_72_2039" x1="4.65652" y1="43.675" x2="6.07635" y2="48.6442" gradientUnits="userSpaceOnUse">
<stop stop-color="#9E0FE1"/>
<stop offset="1" stop-color="#13064F"/>
</linearGradient>
<clipPath id="clip0_72_2039">
<rect width="87" height="87" fill="white"/>
</clipPath>
</defs>
</svg>
